# xmcd CD database file
#
# Track frame offsets:
#	163
#	16513
#	36913
#	54313
#	71788
#	92188
#	109588
#	129313
#	147913
#	171538
#	199738
#
# Disc length: 3067 seconds
#
# Revision: 0
# Processed by: cddbd v1.4PL0 Copyright (c) Steve Scherf et al.
# Submitted via: CDex 1.50
#
DISCID=960bf90b
DTITLE=Various Artist - Mosquito Coast - Vol.2
DYEAR=1990
DGENRE=Salsa
TTITLE0=Para Ser Rumbero
TTITLE1=El Sapo
TTITLE2=Chirla Negra, Chirla Blanca
TTITLE3=Mi Tonto Amor
TTITLE4=A Donde Vayas
TTITLE5=Estás Pillao
TTITLE6=Woman del Callao
TTITLE7=Abusadora
TTITLE8=Con un Par
TTITLE9=Yo Si soy Veneno
TTITLE10=Cada Vez que te Veo
EXTD=YEAR: 1990
EXTT0=
EXTT1=
EXTT2=
EXTT3=
EXTT4=
EXTT5=
EXTT6=
EXTT7=
EXTT8=
EXTT9=
EXTT10=
PLAYORDER=
